<svg width="228" height="208" viewBox="0 0 228 208" fill="none" xmlns="http://www.w3.org/2000/svg">
<g filter="url(#filter0_d_206_43)">
<mask id="path-1-inside-1_206_43" fill="white">
<path fill-rule="evenodd" clip-rule="evenodd" d="M4 0H49.2851V157.529H62.4429V0H107.728V2.47824L109.697 4.72678L118.245 14.1732L135.342 33.0661L142.748 41.2503L149.02 34.5093L167.004 15.1805L175.996 5.51614L178.715 2.35488V0H224V200H178.715V65.6093L146.004 98.7138L141.693 103.818L107.728 67.7988V157.529H166.36V200L107.728 200H62.4429H4V157.529V0Z"/>
</mask>
<path d="M49.2851 0H57.2851V-8H49.2851V0ZM4 0V-8H-4V0H4ZM49.2851 157.529H41.2851V165.529H49.2851V157.529ZM62.4429 157.529V165.529H70.4429V157.529H62.4429ZM62.4429 0V-8H54.4429V0H62.4429ZM107.728 0H115.728V-8H107.728V0ZM107.728 2.47824H99.728V5.48608L101.71 7.74886L107.728 2.47824ZM109.697 4.72678L103.679 9.9974L103.722 10.0464L103.765 10.0946L109.697 4.72678ZM118.245 14.1732L124.177 8.80536V8.80536L118.245 14.1732ZM135.342 33.0661L129.41 38.4339V38.4339L135.342 33.0661ZM142.748 41.2503L136.816 46.6181L142.666 53.0827L148.605 46.6997L142.748 41.2503ZM149.02 34.5093L154.877 39.9587L149.02 34.5093ZM167.004 15.1805L172.861 20.6299L172.861 20.6299L167.004 15.1805ZM175.996 5.51614L181.853 10.9655L181.959 10.8514L182.06 10.7333L175.996 5.51614ZM178.715 2.35488L184.78 7.57205L186.715 5.3224V2.35488H178.715ZM178.715 0V-8H170.715V0H178.715ZM224 0H232V-8H224V0ZM224 200V208H232V200H224ZM178.715 200H170.715V208H178.715V200ZM178.715 65.6093H186.715V46.1313L173.025 59.9864L178.715 65.6093ZM146.004 98.7138L140.313 93.0908L140.094 93.3131L139.892 93.5519L146.004 98.7138ZM141.693 103.818L135.872 109.307L142.021 115.828L147.805 108.98L141.693 103.818ZM107.728 67.7988L113.548 62.3104L99.728 47.6538V67.7988H107.728ZM107.728 157.529H99.728V165.529H107.728V157.529ZM166.36 157.529H174.36V149.529H166.36V157.529ZM166.36 200V208H174.36V200H166.36ZM107.728 200L107.728 192H107.728V200ZM4 200H-4V208H4V200ZM49.2851 -8H4V8H49.2851V-8ZM57.2851 157.529V0H41.2851V157.529H57.2851ZM62.4429 149.529H49.2851V165.529H62.4429V149.529ZM54.4429 0V157.529H70.4429V0H54.4429ZM107.728 -8H62.4429V8H107.728V-8ZM115.728 2.47824V0H99.728V2.47824H115.728ZM115.715 -0.543838L113.746 -2.79238L101.71 7.74886L103.679 9.9974L115.715 -0.543838ZM124.177 8.80536L115.629 -0.641064L103.765 10.0946L112.314 19.541L124.177 8.80536ZM141.274 27.6982L124.177 8.80536L112.314 19.541L129.41 38.4339L141.274 27.6982ZM148.68 35.8824L141.274 27.6982L129.41 38.4339L136.816 46.6181L148.68 35.8824ZM143.163 29.0599L136.891 35.8009L148.605 46.6997L154.877 39.9587L143.163 29.0599ZM161.147 9.73114L143.163 29.0599L154.877 39.9587L172.861 20.6299L161.147 9.73114ZM170.139 0.0667482L161.147 9.73114L172.861 20.6299L181.853 10.9655L170.139 0.0667482ZM172.65 -2.86228L169.931 0.298969L182.06 10.7333L184.78 7.57205L172.65 -2.86228ZM170.715 0V2.35488H186.715V0H170.715ZM224 -8H178.715V8H224V-8ZM232 200V0H216V200H232ZM178.715 208H224V192H178.715V208ZM170.715 65.6093V200H186.715V65.6093H170.715ZM151.695 104.337L184.406 71.2323L173.025 59.9864L140.313 93.0908L151.695 104.337ZM147.805 108.98L152.116 103.876L139.892 93.5519L135.581 98.6565L147.805 108.98ZM101.908 73.2872L135.872 109.307L147.513 98.33L113.548 62.3104L101.908 73.2872ZM115.728 157.529V67.7988H99.728V157.529H115.728ZM166.36 149.529H107.728V165.529H166.36V149.529ZM174.36 200V157.529H158.36V200H174.36ZM107.728 208L166.36 208V192L107.728 192L107.728 208ZM62.4429 208H107.728V192H62.4429V208ZM4 208H62.4429V192H4V208ZM-4 157.529V200H12V157.529H-4ZM-4 0V157.529H12V0H-4Z" fill="white" mask="url(#path-1-inside-1_206_43)"/>
</g>
<defs>
<filter id="filter0_d_206_43" x="0" y="0" width="228" height="208" filterUnits="userSpaceOnUse" color-interpolation-filters="sRGB">
<feFlood flood-opacity="0" result="BackgroundImageFix"/>
<feColorMatrix in="SourceAlpha" type="matrix" values="0 0 0 0 0 0 0 0 0 0 0 0 0 0 0 0 0 0 127 0" result="hardAlpha"/>
<feOffset dy="4"/>
<feGaussianBlur stdDeviation="2"/>
<feComposite in2="hardAlpha" operator="out"/>
<feColorMatrix type="matrix" values="0 0 0 0 0 0 0 0 0 0 0 0 0 0 0 0 0 0 0.25 0"/>
<feBlend mode="normal" in2="BackgroundImageFix" result="effect1_dropShadow_206_43"/>
<feBlend mode="normal" in="SourceGraphic" in2="effect1_dropShadow_206_43" result="shape"/>
</filter>
</defs>
</svg>
