<svg width="228" height="208" viewBox="0 0 228 208" fill="none" xmlns="http://www.w3.org/2000/svg">
<g filter="url(#filter0_d_163_152)">
<path fill-rule="evenodd" clip-rule="evenodd" d="M49.2851 0H4V157.529V200H62.4429H107.728L166.36 200V157.529H107.728V67.7988L141.693 103.818L146.004 98.7138L178.715 65.6093V200H224V0H178.715V2.35488L175.996 5.51614L167.004 15.1805L149.02 34.5093L142.748 41.2503L135.342 33.0661L118.245 14.1732L109.697 4.72678L107.728 2.47824V0H62.4429V157.529H49.2851V0ZM101 6H71V166H42V8.00012H12V166V192H42H158V166H101V51.7551L141.335 93.268L142.343 92.0388L186 47.1071V98V190H216V6H186V7.00006L185.999 7L180.642 12.5309L172.628 21.1392L156.599 38.3559L143.353 52.5836L101 7.00005L101 6Z" fill="#1E1E1E"/>
</g>
<defs>
<filter id="filter0_d_163_152" x="0" y="0" width="228" height="208" filterUnits="userSpaceOnUse" color-interpolation-filters="sRGB">
<feFlood flood-opacity="0" result="BackgroundImageFix"/>
<feColorMatrix in="SourceAlpha" type="matrix" values="0 0 0 0 0 0 0 0 0 0 0 0 0 0 0 0 0 0 127 0" result="hardAlpha"/>
<feOffset dy="4"/>
<feGaussianBlur stdDeviation="2"/>
<feComposite in2="hardAlpha" operator="out"/>
<feColorMatrix type="matrix" values="0 0 0 0 0 0 0 0 0 0 0 0 0 0 0 0 0 0 0.25 0"/>
<feBlend mode="normal" in2="BackgroundImageFix" result="effect1_dropShadow_163_152"/>
<feBlend mode="normal" in="SourceGraphic" in2="effect1_dropShadow_163_152" result="shape"/>
</filter>
</defs>
</svg>
