<svg width="244" height="240" viewBox="0 0 244 240" fill="none" xmlns="http://www.w3.org/2000/svg">
<g filter="url(#filter0_d_163_176)">
<mask id="path-1-inside-1_163_176" fill="white">
<path fill-rule="evenodd" clip-rule="evenodd" d="M20 21H65.2851V178.529H78.4429V21H123.728V23.4782L125.697 25.7268L134.245 35.1732L151.342 54.0661L158.748 62.2503L165.02 55.5093L183.004 36.1805L191.996 26.5161L194.715 23.3549V21H240V221H194.715V86.6093L162.004 119.714L157.693 124.818L123.728 88.7988V178.529H182.36V221L123.728 221H78.4429H20V178.529V21Z"/>
</mask>
<path d="M65.2851 21H77.2851V9H65.2851V21ZM20 21V9H8V21H20ZM65.2851 178.529H53.2851V190.529H65.2851V178.529ZM78.4429 178.529V190.529H90.4429V178.529H78.4429ZM78.4429 21V9H66.4429V21H78.4429ZM123.728 21H135.728V9H123.728V21ZM123.728 23.4782H111.728V27.99L114.7 31.3842L123.728 23.4782ZM125.697 25.7268L116.67 33.6327L116.734 33.7062L116.799 33.7786L125.697 25.7268ZM134.245 35.1732L143.143 27.1214L143.143 27.1214L134.245 35.1732ZM151.342 54.0661L142.444 62.1178L142.444 62.1178L151.342 54.0661ZM158.748 62.2503L149.851 70.302L158.625 79.9989L167.534 70.4244L158.748 62.2503ZM165.02 55.5093L173.806 63.6834L173.806 63.6834L165.02 55.5093ZM183.004 36.1805L191.789 44.3546L191.789 44.3546L183.004 36.1805ZM191.996 26.5161L200.781 34.6902L200.94 34.5191L201.093 34.3419L191.996 26.5161ZM194.715 23.3549L203.812 31.1806L206.715 27.8062V23.3549H194.715ZM194.715 21V9H182.715V21H194.715ZM240 21H252V9H240V21ZM240 221V233H252V221H240ZM194.715 221H182.715V233H194.715V221ZM194.715 86.6093H206.715V57.3922L186.179 78.1749L194.715 86.6093ZM162.004 119.714L153.468 111.279L153.139 111.613L152.836 111.971L162.004 119.714ZM157.693 124.818L148.962 133.051L158.186 142.833L166.86 132.561L157.693 124.818ZM123.728 88.7988L132.459 80.5662L111.728 58.5813V88.7988H123.728ZM123.728 178.529H111.728V190.529H123.728V178.529ZM182.36 178.529H194.36V166.529H182.36V178.529ZM182.36 221L182.36 233L194.36 233V221H182.36ZM123.728 221L123.728 209H123.728V221ZM20 221H8V233H20V221ZM65.2851 9H20V33H65.2851V9ZM77.2851 178.529V21H53.2851V178.529H77.2851ZM78.4429 166.529H65.2851V190.529H78.4429V166.529ZM66.4429 21V178.529H90.4429V21H66.4429ZM123.728 9H78.4429V33H123.728V9ZM135.728 23.4782V21H111.728V23.4782H135.728ZM134.725 17.8209L132.755 15.5723L114.7 31.3842L116.67 33.6327L134.725 17.8209ZM143.143 27.1214L134.595 17.675L116.799 33.7786L125.348 43.225L143.143 27.1214ZM160.24 46.0143L143.143 27.1214L125.348 43.225L142.444 62.1178L160.24 46.0143ZM167.646 54.1985L160.24 46.0143L142.444 62.1178L149.851 70.302L167.646 54.1985ZM156.235 47.3352L149.963 54.0762L167.534 70.4244L173.806 63.6834L156.235 47.3352ZM174.218 28.0064L156.235 47.3352L173.806 63.6834L191.789 44.3546L174.218 28.0064ZM183.21 18.3421L174.218 28.0064L191.789 44.3546L200.781 34.6902L183.21 18.3421ZM185.618 15.5291L182.899 18.6904L201.093 34.3419L203.812 31.1806L185.618 15.5291ZM182.715 21V23.3549H206.715V21H182.715ZM240 9H194.715V33H240V9ZM252 221V21H228V221H252ZM194.715 233H240V209H194.715V233ZM182.715 86.6093V221H206.715V86.6093H182.715ZM170.54 128.148L203.251 95.0438L186.179 78.1749L153.468 111.279L170.54 128.148ZM166.86 132.561L171.172 127.457L152.836 111.971L148.525 117.076L166.86 132.561ZM114.997 97.0314L148.962 133.051L166.423 116.586L132.459 80.5662L114.997 97.0314ZM135.728 178.529V88.7988H111.728V178.529H135.728ZM182.36 166.529H123.728V190.529H182.36V166.529ZM194.36 221V178.529H170.36V221H194.36ZM123.728 233L182.36 233L182.36 209L123.728 209L123.728 233ZM78.4429 233H123.728V209H78.4429V233ZM20 233H78.4429V209H20V233ZM8 178.529V221H32V178.529H8ZM8 21V178.529H32V21H8Z" fill="white" mask="url(#path-1-inside-1_163_176)"/>
</g>
<defs>
<filter id="filter0_d_163_176" x="16" y="21" width="228" height="208" filterUnits="userSpaceOnUse" color-interpolation-filters="sRGB">
<feFlood flood-opacity="0" result="BackgroundImageFix"/>
<feColorMatrix in="SourceAlpha" type="matrix" values="0 0 0 0 0 0 0 0 0 0 0 0 0 0 0 0 0 0 127 0" result="hardAlpha"/>
<feOffset dy="4"/>
<feGaussianBlur stdDeviation="2"/>
<feComposite in2="hardAlpha" operator="out"/>
<feColorMatrix type="matrix" values="0 0 0 0 0 0 0 0 0 0 0 0 0 0 0 0 0 0 0.25 0"/>
<feBlend mode="normal" in2="BackgroundImageFix" result="effect1_dropShadow_163_176"/>
<feBlend mode="normal" in="SourceGraphic" in2="effect1_dropShadow_163_176" result="shape"/>
</filter>
</defs>
</svg>
